HIERARCHY
ROOT Hips
{
	OFFSET 0.00000 0.00000 0.00000
	CHANNELS 6 Xposition Yposition Zposition Zrotation Yrotation Xrotation 
	JOINT LHipJoint
	{
		OFFSET 0 0 0
		CHANNELS 3 Zrotation Yrotation Xrotation
		JOINT LeftHip
		{
			OFFSET 1.65412 -1.54119 0.76744
			CHANNELS 3 Zrotation Yrotation Xrotation
			JOINT LeftKnee
			{
				OFFSET 2.19550 -6.03209 0.00000
				CHANNELS 3 Zrotation Yrotation Xrotation
				JOINT LeftAnkle
				{
					OFFSET 2.38814 -6.56138 0.00000
					CHANNELS 3 Zrotation Yrotation Xrotation
					JOINT LeftToe
					{
						OFFSET 0.17337 -0.47632 1.75875
						CHANNELS 3 Zrotation Yrotation Xrotation
						End Site
						{
							OFFSET 0.00000 -0.00000 0.92050
						}
					}
				}
			}
		}
	}
	JOINT RHipJoint
	{
		OFFSET 0 0 0
		CHANNELS 3 Zrotation Yrotation Xrotation
		JOINT RightHip
		{
			OFFSET -1.40291 -1.54119 0.76744
			CHANNELS 3 Zrotation Yrotation Xrotation
			JOINT RightKnee
			{
				OFFSET -2.22156 -6.10370 0.00000
				CHANNELS 3 Zrotation Yrotation Xrotation
				JOINT RightAnkle
				{
					OFFSET -2.46840 -6.78188 0.00000
					CHANNELS 3 Zrotation Yrotation Xrotation
					JOINT RightToe
					{
						OFFSET -0.15659 -0.43024 1.84117
						CHANNELS 3 Zrotation Yrotation Xrotation
						End Site
						{
							OFFSET -0.00000 -0.00000 0.95587
						}
					}
				}
			}
		}
	}
	JOINT lowerback
	{
		OFFSET 0 0 0
		CHANNELS 3 Zrotation Yrotation Xrotation
		JOINT Chest
		{
			OFFSET -0.01936 1.82120 -0.32061
			CHANNELS 3 Zrotation Yrotation Xrotation
			JOINT Chest2
			{
				OFFSET -0.00532 1.85767 -0.00071
				CHANNELS 3 Zrotation Yrotation Xrotation
				JOINT lowerneck
				{
					OFFSET 0 0 0
					CHANNELS 3 Zrotation Yrotation Xrotation
					JOINT Neck
					{
						OFFSET -0.10687 1.58194 0.10810
						CHANNELS 3 Zrotation Yrotation Xrotation
						JOINT Head
						{
							OFFSET 0.15346 1.57382 -0.25612
							CHANNELS 3 Zrotation Yrotation Xrotation
							End Site
							{
								OFFSET 0.05334 1.61251 -0.10513
							}
						}
					}
				}
				JOINT LeftCollar
				{
					OFFSET 0 0 0
					CHANNELS 3 Zrotation Yrotation Xrotation
					JOINT LeftShoulder
					{
						OFFSET 2.85758 0.89498 -0.01485
CHANNELS 3 Zrotation Xrotation Yrotation
						JOINT LeftElbow
						{
OFFSET 0 -4.791850 -0.000000
CHANNELS 3 Zrotation Xrotation Yrotation
							JOINT LeftWrist
							{
OFFSET 0 -2.655530 0.000000
CHANNELS 3 Zrotation Xrotation Yrotation
								JOINT lhand
								{
									OFFSET 0 0 0
CHANNELS 3 Zrotation Xrotation Yrotation
									JOINT LFingers
									{
OFFSET 0 -0.743900 0.000000
CHANNELS 3 Zrotation Xrotation Yrotation
										End Site
										{
OFFSET 0 -0.599750 0.000000
										}
									}
								}
								JOINT LThumb
								{
OFFSET 0 0.000000 0.000000
CHANNELS 3 Zrotation Xrotation Yrotation
									End Site
									{
OFFSET 0 -0.608910 0.608910
									}
								}
							}
						}
					}
				}
				JOINT RightCollar
				{
					OFFSET 0 0 0
					CHANNELS 3 Zrotation Yrotation Xrotation
					JOINT RightShoulder
					{
						OFFSET -2.93906 0.88031 0.02490
CHANNELS 3 Zrotation Xrotation Yrotation
						JOINT RightElbow
						{
OFFSET 0 -4.772540 -0.000000
CHANNELS 3 Zrotation Xrotation Yrotation
							JOINT RightWrist
							{
OFFSET 0 -2.759950 -0.000000
CHANNELS 3 Zrotation Xrotation Yrotation
								JOINT rhand
								{
									OFFSET 0 0 0
CHANNELS 3 Zrotation Xrotation Yrotation
									JOINT RFingers
									{
OFFSET 0 -0.701620 0.000000
CHANNELS 3 Zrotation Xrotation Yrotation
										End Site
										{
OFFSET 0 -0.565660 0.000000
										}
									}
								}
								JOINT RThumb
								{
OFFSET 0 0.000000 0.000000
CHANNELS 3 Zrotation Xrotation Yrotation
									End Site
									{
OFFSET 0 -0.574300 0.574300
									}
								}
							}
						}
					}
				}
			}
		}
	}
}
MOTION
Frames: 7
Frame Time: 0.008333333333333333
0.447632 16.078918 -0.263569 -0.520213 -6.544385 -2.959618 0.000000 0.000000 0.000000 -18.664199 -6.148665 9.344840 0.190551 2.811160 7.753429 -0.066063 10.465221 -13.821230 0.339254 -3.742743 -10.354007 0.000000 0.000000 0.000000 18.124192 12.042793 4.418480 -0.777069 -5.628279 15.709541 -0.127844 -8.108913 -13.849133 -0.193405 2.832275 -7.812179 -3.065581 1.132714 10.879049 -0.258788 1.073903 -1.534641 1.266866 0.651566 -7.799916 -14.615909 -10.002409 -8.749297 8.587638 -13.964982 27.043620 3.670999 -6.935773 11.993990 0.000000 0.000000 0.000000 7.553192 14.379894 -21.919662 19.753604 -30.344284 5.406325 6.639074 -16.363572 -10.005822 0.000000 0.000000 0.000000 -7.125000 0.000000 0.000000 -17.627398 39.433879 -2.508977 0.000000 0.000000 0.000000 -9.227153 12.979867 30.124985 -26.247281 -37.451696 -9.037700 -12.820198 -0.891832 -10.008991 0.000000 0.000000 0.000000 7.125000 0.000000 0.000000 10.072886 19.797868 6.160893
0.461930 16.067272 -0.257319 -0.571135 -5.510583 -3.013239 0.000000 0.000000 0.000000 -18.885218 -7.934122 8.725485 0.296293 3.500080 9.674204 -0.017338 10.513429 -14.699042 0.330997 -3.697717 -10.227763 0.000000 0.000000 0.000000 18.122279 11.687673 4.567671 -0.779020 -5.635187 15.729406 -0.125518 -8.478253 -14.254105 -0.157949 2.557847 -7.050279 -2.626039 1.163925 11.399152 -0.243760 1.159220 -1.573563 1.010998 0.677206 -8.134467 -14.191069 -9.794272 -9.170350 7.918013 -13.511379 27.486006 3.413934 -6.745043 12.099657 0.000000 0.000000 0.000000 6.650065 14.754331 -20.694190 18.077471 -28.256249 4.585909 6.847548 -15.365721 -9.448872 0.000000 0.000000 0.000000 -7.125000 0.000000 0.000000 -17.306537 38.916133 -2.689215 0.000000 0.000000 0.000000 -9.330040 13.792411 23.727514 -19.042012 -29.470794 -5.051509 -13.127564 2.478793 -10.964781 0.000000 0.000000 0.000000 7.125000 0.000000 0.000000 9.825787 18.817759 6.223081
0.433109 16.069359 -0.254337 -0.544343 -5.085824 -2.753131 0.000000 0.000000 0.000000 -18.754819 -8.228166 8.433851 0.297319 3.506040 9.690988 -0.025643 10.423893 -14.436116 0.350123 -3.801801 -10.519640 0.000000 0.000000 0.000000 18.181620 11.776823 4.274438 -0.804775 -5.725391 15.989695 -0.143267 -8.577178 -14.644769 -0.114807 2.183904 -6.014073 -2.569800 1.118844 11.315326 -0.322929 1.102640 -1.624965 0.906396 0.645621 -8.136559 -14.015412 -9.477603 -9.282138 7.711766 -13.049767 28.050768 3.387386 -6.541048 12.253755 0.000000 0.000000 0.000000 6.921101 14.668022 -20.662721 18.012579 -28.173319 4.555191 7.197202 -15.729639 -9.771957 0.000000 0.000000 0.000000 -7.125000 0.000000 0.000000 -17.098184 39.253782 -2.507020 0.000000 0.000000 0.000000 -9.302343 14.886638 23.264848 -19.545078 -30.090319 -5.301375 -13.000293 1.885543 -10.621057 0.000000 0.000000 0.000000 7.125000 0.000000 0.000000 9.925290 19.171463 6.208744
0.403938 16.077100 -0.292709 -0.444273 -5.188000 -2.649326 0.000000 0.000000 0.000000 -18.680235 -8.035684 8.467305 0.260939 3.286385 9.077089 -0.063302 10.575522 -14.038385 0.345136 -3.774696 -10.443595 0.000000 0.000000 0.000000 18.082741 11.752099 3.733838 -0.841257 -5.850480 16.351189 -0.169753 -8.206643 -14.610764 -0.100009 2.039197 -5.614049 -2.567598 1.234839 11.848420 -0.323421 1.236982 -1.859269 0.866897 0.717086 -8.702355 -14.025349 -9.385395 -9.368200 7.462894 -12.854852 28.435691 3.326301 -6.481009 12.382861 0.000000 0.000000 0.000000 6.906468 14.266962 -21.208858 19.332235 -29.829462 5.195118 6.037782 -15.415610 -11.264476 0.000000 0.000000 0.000000 -7.125000 0.000000 0.000000 -18.484700 40.585287 -2.093825 0.000000 0.000000 0.000000 -9.324570 14.118763 26.696050 -22.197495 -33.199444 -6.693686 -12.811358 -0.103913 -10.627034 0.000000 0.000000 0.000000 7.125000 0.000000 0.000000 10.058054 19.175583 6.293420
0.381043 16.078570 -0.320261 -0.591996 -4.660207 -2.681881 0.000000 0.000000 0.000000 -18.423048 -8.424018 8.132751 0.290322 3.464951 9.576086 -0.051722 10.327539 -13.858911 0.368678 -3.899987 -10.795574 0.000000 0.000000 0.000000 18.361909 11.727538 3.887920 -0.821095 -5.781611 16.152117 -0.147565 -8.618248 -14.757836 -0.075512 1.772187 -4.876554 -2.224853 1.326930 12.238290 -0.238234 1.406865 -1.931578 0.722588 0.786748 -9.005365 -14.287199 -9.407186 -9.140299 7.484802 -12.861646 28.427318 3.385221 -6.513221 12.358826 0.000000 0.000000 0.000000 6.390618 14.182585 -21.708251 19.289343 -29.776604 5.173722 7.045069 -16.533371 -9.369375 0.000000 0.000000 0.000000 -7.125000 0.000000 0.000000 -17.121444 38.854836 -2.685152 0.000000 0.000000 0.000000 -9.452341 14.136537 28.463496 -23.011865 -34.101721 -7.144950 -13.201765 -1.113877 -10.099949 0.000000 0.000000 0.000000 7.125000 0.000000 0.000000 9.800017 19.686986 6.013584
0.373000 16.074498 -0.320301 -0.489345 -4.414965 -2.667579 0.000000 0.000000 0.000000 -18.467692 -8.239568 8.122871 0.276203 3.380368 9.339651 -0.052851 10.111705 -13.512770 0.404921 -4.085254 -11.316645 0.000000 0.000000 0.000000 18.250607 11.540170 3.706920 -0.845704 -5.865612 16.394983 -0.154760 -8.611013 -14.856741 -0.103448 2.074078 -5.710340 -2.205156 1.330644 12.290828 -0.229186 1.416145 -1.757961 0.720771 0.788098 -8.846570 -14.479223 -9.376886 -8.981767 7.759520 -12.866753 28.281828 3.526338 -6.507463 12.305399 0.000000 0.000000 0.000000 6.040357 14.384371 -20.789225 18.388536 -28.651819 4.734069 7.073288 -15.531746 -10.024625 0.000000 0.000000 0.000000 -7.125000 0.000000 0.000000 -17.268459 39.486717 -2.430945 0.000000 0.000000 0.000000 -9.128752 14.580435 27.179915 -21.813823 -32.765948 -6.484804 -12.900354 -0.327228 -9.644679 0.000000 0.000000 0.000000 7.125000 0.000000 0.000000 10.029646 20.161253 6.050421
0.371324 16.078834 -0.307010 -0.451916 -4.638313 -2.507091 0.000000 0.000000 0.000000 -18.386435 -7.525222 7.886512 0.263745 3.303822 9.125684 -0.028510 9.658103 -13.264035 0.398769 -4.054591 -11.230357 0.000000 0.000000 0.000000 18.211550 11.699388 3.534615 -0.858484 -5.908525 16.519116 -0.156411 -8.562196 -14.823657 -0.110039 2.138377 -5.888189 -2.219688 1.343795 12.176670 -0.173279 1.439773 -1.716182 0.786894 0.800924 -8.737958 -14.436068 -9.313105 -9.158115 7.618861 -12.733016 28.525184 3.482852 -6.454281 12.407447 0.000000 0.000000 0.000000 6.094282 14.367204 -20.506113 18.140223 -28.336310 4.615558 6.777459 -15.404926 -9.723958 0.000000 0.000000 0.000000 -7.125000 0.000000 0.000000 -17.436731 39.174632 -2.595608 0.000000 0.000000 0.000000 -8.956771 14.784792 26.227756 -21.271861 -32.144305 -6.193940 -12.346602 1.207829 -10.088311 0.000000 0.000000 0.000000 7.125000 0.000000 0.000000 10.404593 19.741158 6.383841
